TITLE ""
FILE "P1Q_t_0120-0128.mp3" MP3
  TRACK 01 AUDIO
    TITLE "P1Q_t_0120-0128_01"
    INDEX 01 00:00:00
  TRACK 02 AUDIO
    TITLE "P1Q_t_0120-0128_02"
    INDEX 01 00:01:22
  TRACK 03 AUDIO
    TITLE "P1Q_t_0120-0128_03"
    INDEX 01 00:01:43
  TRACK 04 AUDIO
    TITLE "P1Q_t_0120-0128_04"
    INDEX 01 00:05:43
  TRACK 05 AUDIO
    TITLE "P1Q_t_0120-0128_05"
    INDEX 01 00:05:62
  TRACK 06 AUDIO
    TITLE "P1Q_t_0120-0128_06"
    INDEX 01 00:10:11
  TRACK 07 AUDIO
    TITLE "P1Q_t_0120-0128_07"
    INDEX 01 00:10:56
  TRACK 08 AUDIO
    TITLE "P1Q_t_0120-0128_08"
    INDEX 01 00:12:08
  TRACK 09 AUDIO
    TITLE "P1Q_t_0120-0128_09"
    INDEX 01 00:12:27
  TRACK 10 AUDIO
    TITLE "P1Q_t_0120-0128_10"
    INDEX 01 00:13:72
  TRACK 11 AUDIO
    TITLE "P1Q_t_0120-0128_11"
    INDEX 01 00:14:18
  TRACK 12 AUDIO
    TITLE "P1Q_t_0120-0128_12"
    INDEX 01 00:17:54
  TRACK 13 AUDIO
    TITLE "P1Q_t_0120-0128_13"
    INDEX 01 00:18:24
  TRACK 14 AUDIO
    TITLE "P1Q_t_0120-0128_14"
    INDEX 01 00:19:57
  TRACK 15 AUDIO
    TITLE "P1Q_t_0120-0128_15"
    INDEX 01 00:20:03
  TRACK 16 AUDIO
    TITLE "P1Q_t_0120-0128_16"
    INDEX 01 00:23:41
  TRACK 17 AUDIO
    TITLE "P1Q_t_0120-0128_17"
    INDEX 01 00:23:60
  TRACK 18 AUDIO
    TITLE "P1Q_t_0120-0128_18"
    INDEX 01 00:28:34
  TRACK 19 AUDIO
    TITLE "P1Q_t_0120-0128_19"
    INDEX 01 00:29:04
  TRACK 20 AUDIO
    TITLE "P1Q_t_0120-0128_20"
    INDEX 01 00:30:27
  TRACK 21 AUDIO
    TITLE "P1Q_t_0120-0128_21"
    INDEX 01 00:30:49
  TRACK 22 AUDIO
    TITLE "P1Q_t_0120-0128_22"
    INDEX 01 00:32:20
  TRACK 23 AUDIO
    TITLE "P1Q_t_0120-0128_23"
    INDEX 01 00:32:40
  TRACK 24 AUDIO
    TITLE "P1Q_t_0120-0128_24"
    INDEX 01 00:36:10
  TRACK 25 AUDIO
    TITLE "P1Q_t_0120-0128_25"
    INDEX 01 00:36:55
  TRACK 26 AUDIO
    TITLE "P1Q_t_0120-0128_26"
    INDEX 01 00:38:01
  TRACK 27 AUDIO
    TITLE "P1Q_t_0120-0128_27"
    INDEX 01 00:38:21
  TRACK 28 AUDIO
    TITLE "P1Q_t_0120-0128_28"
    INDEX 01 00:40:47
  TRACK 29 AUDIO
    TITLE "P1Q_t_0120-0128_29"
    INDEX 01 00:40:69
  TRACK 30 AUDIO
    TITLE "P1Q_t_0120-0128_30"
    INDEX 01 00:44:68
  TRACK 31 AUDIO
    TITLE "P1Q_t_0120-0128_31"
    INDEX 01 00:45:38
  TRACK 32 AUDIO
    TITLE "P1Q_t_0120-0128_32"
    INDEX 01 00:46:52
  TRACK 33 AUDIO
    TITLE "P1Q_t_0120-0128_33"
    INDEX 01 00:46:73
  TRACK 34 AUDIO
    TITLE "P1Q_t_0120-0128_34"
    INDEX 01 00:49:70
  TRACK 35 AUDIO
    TITLE "P1Q_t_0120-0128_35"
    INDEX 01 00:50:16
  TRACK 36 AUDIO
    TITLE "P1Q_t_0120-0128_36"
    INDEX 01 00:54:24
  TRACK 37 AUDIO
    TITLE "P1Q_t_0120-0128_37"
    INDEX 01 00:54:73
  TRACK 38 AUDIO
    TITLE "P1Q_t_0120-0128_38"
    INDEX 01 00:56:19
  TRACK 39 AUDIO
    TITLE "P1Q_t_0120-0128_39"
    INDEX 01 00:56:46
  TRACK 40 AUDIO
    TITLE "P1Q_t_0120-0128_40"
    INDEX 01 00:59:37
  TRACK 41 AUDIO
    TITLE "P1Q_t_0120-0128_41"
    INDEX 01 00:59:56
  TRACK 42 AUDIO
    TITLE "P1Q_t_0120-0128_42"
    INDEX 01 01:05:55
  TRACK 43 AUDIO
    TITLE "P1Q_t_0120-0128_43"
    INDEX 01 01:06:27
  TRACK 44 AUDIO
    TITLE "P1Q_t_0120-0128_44"
    INDEX 01 01:07:34
  TRACK 45 AUDIO
    TITLE "P1Q_t_0120-0128_45"
    INDEX 01 01:08:02
  TRACK 46 AUDIO
    TITLE "P1Q_t_0120-0128_46"
    INDEX 01 01:09:13
  TRACK 47 AUDIO
    TITLE "P1Q_t_0120-0128_47"
    INDEX 01 01:09:35
  TRACK 48 AUDIO
    TITLE "P1Q_t_0120-0128_48"
    INDEX 01 01:13:60
  TRACK 49 AUDIO
    TITLE "P1Q_t_0120-0128_49"
    INDEX 01 01:14:07
  TRACK 50 AUDIO
    TITLE "P1Q_t_0120-0128_50"
    INDEX 01 01:17:64
  TRACK 51 AUDIO
    TITLE "P1Q_t_0120-0128_51"
    INDEX 01 01:18:36
  TRACK 52 AUDIO
    TITLE "P1Q_t_0120-0128_52"
    INDEX 01 01:20:01
  TRACK 53 AUDIO
    TITLE "P1Q_t_0120-0128_53"
    INDEX 01 01:20:23
  TRACK 54 AUDIO
    TITLE "P1Q_t_0120-0128_54"
    INDEX 01 01:22:57
  TRACK 55 AUDIO
    TITLE "P1Q_t_0120-0128_55"
    INDEX 01 01:23:04
  TRACK 56 AUDIO
    TITLE "P1Q_t_0120-0128_56"
    INDEX 01 01:27:15
